Coordinates
version=1
nRows=105
nColumns=11
inDegrees=no

Units are S.I. units (second, meters, Newtons, ...)
If the header above contains a line with 'inDegrees', this indicates whether rotational values are in degrees (yes) or radians (no).

endheader
time	pelvis_tilt	pelvis_tx	pelvis_ty	hip_flexion_r	knee_angle_r	ankle_angle_r	hip_flexion_l	knee_angle_l	ankle_angle_l	lumbar_extension
210.37	0.0557148	0.268788	1.0088	0.0673397	-0.0579132	0.123752	-0.0808165	-0.71525	0.0590652	0
210.38	0.0546522	0.268567	1.0089	0.0575583	-0.0542518	0.132454	-0.0539542	-0.759964	0.0618634	0
210.39	0.0543143	0.268324	1.0092	0.0475448	-0.0517895	0.139161	-0.0297141	-0.800898	0.0754784	0
210.4	0.0537878	0.26812	1.0095	0.0381664	-0.0496668	0.145613	-0.00439144	-0.841519	0.0915315	0
210.41	0.0519128	0.267381	1.00985	0.0288101	-0.0448217	0.153799	0.0225171	-0.879356	0.104319	0
210.42	0.0514164	0.267538	1.01031	0.0193111	-0.0419944	0.158295	0.0464298	-0.909675	0.110598	0
210.43	0.0755127	0.270718	1.01234	-0.017162	-0.0501692	0.167394	0.0386904	-0.93938	0.11269	0
210.44	0.0760263	0.270235	1.01296	-0.0269909	-0.0488269	0.176374	0.0606952	-0.962317	0.116084	0
210.45	0.0733963	0.269008	1.01336	-0.0316819	-0.0489534	0.182264	0.0880098	-0.983881	0.121536	0
210.46	0.073008	0.268139	1.0141	-0.039402	-0.0486422	0.186837	0.109847	-0.997993	0.12648	0
210.47	0.0710099	0.266791	1.01454	-0.0436825	-0.050639	0.193536	0.133403	-1.00808	0.130125	0
210.48	0.0696489	0.265382	1.01511	-0.0481533	-0.0532309	0.199977	0.155151	-1.01319	0.134719	0
210.49	0.068328	0.264046	1.01578	-0.0519719	-0.0571056	0.204523	0.175337	-1.01302	0.140435	0
210.5	0.0663093	0.26243	1.0163	-0.0544333	-0.06199	0.208266	0.196753	-1.01098	0.144892	0
210.51	0.060803	0.25991	1.0163	-0.0512936	-0.0685236	0.211687	0.223445	-1.00746	0.148914	0
210.52	0.0583003	0.258235	1.01658	-0.0534537	-0.0725627	0.216353	0.242333	-0.994442	0.149909	0
210.53	0.0569019	0.256818	1.01693	-0.0570027	-0.0764305	0.221104	0.257411	-0.97652	0.156916	0
210.54	0.0295398	0.251232	1.01535	-0.0313311	-0.0691503	0.219337	0.3062	-0.954172	0.167374	0
210.55	0.027117	0.249545	1.01543	-0.0351663	-0.0708838	0.22522	0.320337	-0.9304	0.175189	0
210.56	0.0248296	0.247766	1.01557	-0.0393441	-0.0723397	0.23082	0.331922	-0.901871	0.18188	0
210.57	0.0249407	0.247242	1.01575	-0.0437017	-0.0781859	0.236619	0.338903	-0.869196	0.187861	0
210.58	0.02223	0.245769	1.01556	-0.0445489	-0.0844123	0.24304	0.349397	-0.836506	0.19344	0
210.59	0.0193366	0.244291	1.01511	-0.0455483	-0.0895086	0.24893	0.358664	-0.800305	0.195484	0
210.6	0.0168585	0.243026	1.01462	-0.0485663	-0.0923029	0.254624	0.364809	-0.759205	0.197514	0
210.61	0.0147716	0.24179	1.01407	-0.0537033	-0.0933641	0.261403	0.369619	-0.716713	0.200401	0
210.62	0.0117127	0.239773	1.0134	-0.0568433	-0.0955211	0.266215	0.375274	-0.67368	0.200085	0
210.63	-0.00316818	0.236405	1.01155	-0.0441639	-0.0950111	0.265875	0.397113	-0.630225	0.196181	0
210.64	-0.00397932	0.235706	1.01088	-0.0506969	-0.096323	0.271319	0.395827	-0.581235	0.190664	0
210.65	-0.00456967	0.235114	1.01007	-0.0568673	-0.0986413	0.278344	0.392615	-0.530009	0.186305	0
210.66	-0.00592814	0.234493	1.00912	-0.063494	-0.0988306	0.284261	0.38795	-0.474312	0.181395	0
210.67	-0.00759373	0.233751	1.00805	-0.0702983	-0.0980582	0.291513	0.381504	-0.414366	0.173462	0
210.68	-0.00911513	0.233124	1.00687	-0.0763772	-0.0991303	0.298656	0.37484	-0.355656	0.161861	0
210.69	-0.0102272	0.232636	1.00563	-0.0819772	-0.101711	0.304502	0.367584	-0.298324	0.151546	0
210.7	-0.010835	0.232266	1.0045	-0.0879235	-0.104654	0.312138	0.359641	-0.241647	0.142052	0
210.71	-0.0108397	0.231961	1.00326	-0.0954604	-0.106369	0.323349	0.350356	-0.186202	0.129042	0
210.72	0.000909196	0.233797	1.00284	-0.119026	-0.108468	0.334079	0.324634	-0.13271	0.117374	0
210.73	0.000498654	0.233894	1.00136	-0.126308	-0.110683	0.338941	0.315275	-0.082335	0.105006	0
210.74	0.00022602	0.234076	0.999934	-0.132808	-0.115106	0.34527	0.305929	-0.0359015	0.0950977	0
210.75	0.000610142	0.234169	0.998544	-0.140339	-0.119213	0.351208	0.297679	0.00333712	0.0885789	0
210.76	0.00171211	0.234707	0.997099	-0.149198	-0.123292	0.360645	0.2906	0.0339179	0.087984	0
210.77	0.00312049	0.23562	0.995746	-0.158236	-0.127863	0.370646	0.282641	0.0589758	0.0924312	0
210.78	0.00295333	0.235868	0.994347	-0.164933	-0.133477	0.375541	0.276009	0.0793713	0.0977874	0
210.79	0.00790945	0.237433	0.993284	-0.176147	-0.140701	0.382236	0.266386	0.0898944	0.104288	0
210.8	0.00899692	0.238013	0.992004	-0.183872	-0.146383	0.387398	0.261754	0.0909378	0.104429	0
210.81	0.00852268	0.238261	0.99072	-0.189034	-0.153506	0.389963	0.260756	0.0819497	0.093743	0
210.82	0.0111622	0.239597	0.98982	-0.195737	-0.164821	0.396635	0.258744	0.0652345	0.082419	0
210.83	0.0119566	0.24037	0.988973	-0.199698	-0.177229	0.397205	0.259784	0.0470509	0.0673649	0
210.84	0.0126472	0.241307	0.988129	-0.202979	-0.191288	0.39354	0.258204	0.036322	0.049679	0
210.85	0.0146953	0.242462	0.987729	-0.207627	-0.205026	0.393137	0.25092	0.0334521	0.0278258	0
210.86	0.0167277	0.243912	0.987439	-0.211761	-0.219403	0.391215	0.240966	0.0338646	0.0063841	0
210.87	0.0184317	0.24556	0.98722	-0.214196	-0.236966	0.386031	0.232257	0.0324638	-0.0113131	0
210.88	0.0206447	0.247248	0.987102	-0.217581	-0.254352	0.381219	0.222671	0.0322936	-0.0263579	0
210.89	0.0239685	0.248905	0.987426	-0.221373	-0.272149	0.374811	0.213462	0.0283056	-0.0303984	0
210.9	0.027953	0.250795	0.988232	-0.223222	-0.294993	0.368029	0.203361	0.022803	-0.0250924	0
210.91	0.034227	0.252871	0.989625	-0.226705	-0.320591	0.355982	0.190008	0.0157736	-0.0172416	0
210.92	0.0336458	0.254203	0.990563	-0.217778	-0.350992	0.340244	0.186544	0.00690186	-0.00639202	0
210.93	0.0366284	0.255727	0.991901	-0.209863	-0.387013	0.318823	0.177657	-0.00158956	0.00394534	0
210.94	0.0405214	0.257772	0.993488	-0.201763	-0.425637	0.290072	0.162708	-0.00311167	0.0128478	0
210.95	0.0441931	0.259946	0.99544	-0.190718	-0.467525	0.258541	0.146055	-0.00141784	0.0228919	0
210.96	0.0468352	0.261241	0.997396	-0.172537	-0.516547	0.222193	0.129761	0.00395341	0.0304558	0
210.97	0.048355	0.262057	0.998959	-0.149264	-0.569472	0.183112	0.115718	0.00876174	0.0351192	0
210.98	0.0497103	0.262847	1.00031	-0.123348	-0.624429	0.14017	0.103239	0.0101763	0.0420366	0
210.99	0.0501468	0.26325	1.0016	-0.0933184	-0.681155	0.0917563	0.0941144	0.0089727	0.0490921	0
211	0.050911	0.26362	1.00284	-0.0623431	-0.737425	0.0414507	0.0826919	0.0114717	0.055194	0
211.01	0.0518735	0.263982	1.00379	-0.0311466	-0.793362	0.00103843	0.0711738	0.0133148	0.0641235	0
211.02	0.0706456	0.266368	1.00565	-0.0197558	-0.853452	-0.0419052	0.0423696	0.00438577	0.073824	0
211.03	0.0704084	0.266234	1.0063	0.0129522	-0.902618	-0.0861348	0.0308859	0.0109091	0.078146	0
211.04	0.0699712	0.265956	1.00672	0.0440239	-0.947712	-0.105169	0.0181089	0.0197586	0.0816999	0
211.05	0.0683342	0.265342	1.00689	0.0759514	-0.990399	-0.103597	0.0089706	0.0251614	0.0875989	0
211.06	0.0466672	0.261568	1.0059	0.131176	-1.02529	-0.0882416	0.0210769	0.0402827	0.0918016	0
211.07	0.0434382	0.260499	1.00602	0.164507	-1.05973	-0.0662832	0.0157527	0.043398	0.0978366	0
211.08	0.0320769	0.257293	1.00553	0.210991	-1.09408	-0.0419757	0.0217855	0.046812	0.0979138	0
211.09	0.042355	0.258958	1.00744	0.217774	-1.10797	-0.0260995	-0.00387553	0.052324	0.103742	0
211.1	0.0435646	0.258729	1.00829	0.238937	-1.12306	-0.0125986	-0.0203214	0.0635762	0.105331	0
211.11	0.0439824	0.25808	1.00923	0.260652	-1.13291	-0.00486079	-0.0315174	0.067929	0.108475	0
211.12	0.0420896	0.256573	1.00991	0.285813	-1.13966	-0.00182821	-0.0362615	0.0675745	0.112435	0
211.13	0.0290836	0.25265	1.00936	0.328556	-1.14765	0.00102996	-0.0213496	0.059083	0.116549	0
211.14	0.0281344	0.251009	1.01025	0.34726	-1.14132	0.00875483	-0.0231416	0.0496971	0.124807	0
211.15	0.0273691	0.249629	1.01113	0.363695	-1.12956	0.0213265	-0.0276254	0.0458263	0.130226	0
211.16	0.0252326	0.247562	1.0118	0.380942	-1.11323	0.035765	-0.0298711	0.0414469	0.137398	0
211.17	0.0230257	0.245775	1.01245	0.39635	-1.09078	0.0438894	-0.0297881	0.0328635	0.145353	0
211.18	0.0205746	0.244152	1.01289	0.409703	-1.0634	0.050283	-0.0337443	0.0316933	0.14836	0
211.19	0.0177281	0.242262	1.01319	0.421908	-1.03278	0.0607796	-0.0370912	0.0297368	0.151399	0
211.2	0.0142614	0.24057	1.01328	0.435145	-0.998464	0.0748139	-0.0329792	0.0184506	0.157679	0
211.21	0.0122608	0.238858	1.01328	0.443688	-0.959632	0.0841232	-0.0312302	0.0059067	0.167286	0
211.22	0.0213758	0.239288	1.0142	0.431657	-0.91241	0.0911152	-0.0463451	-0.00450508	0.18214	0
211.23	0.00849414	0.235736	1.01303	0.453531	-0.871951	0.0973095	-0.0333029	-0.0111178	0.189323	0
211.24	0.0220793	0.237745	1.01423	0.43367	-0.820912	0.102171	-0.0543304	-0.0204952	0.208399	0
211.25	0.0211921	0.236569	1.01402	0.433701	-0.770914	0.109959	-0.0589428	-0.0243702	0.214716	0
211.26	0.00536892	0.232535	1.01219	0.453608	-0.720595	0.112417	-0.045952	-0.0227987	0.213382	0
211.27	0.00396361	0.231706	1.01167	0.449662	-0.663672	0.109058	-0.0545028	-0.0173642	0.216158	0
211.28	0.00313531	0.231115	1.01093	0.443383	-0.605338	0.104327	-0.0607004	-0.0184364	0.225469	0
211.29	0.0021439	0.230372	1.00985	0.43709	-0.546672	0.0967524	-0.0639921	-0.0254373	0.240489	0
211.3	0.000489317	0.229484	1.00851	0.430583	-0.486225	0.0918122	-0.070105	-0.0265896	0.249397	0
211.31	0.0157637	0.231549	1.00889	0.396444	-0.419742	0.0867716	-0.100794	-0.0252177	0.258465	0
211.32	0.0161353	0.231302	1.00782	0.382833	-0.354963	0.0823716	-0.111556	-0.0224688	0.264695	0
211.33	0.0156311	0.230763	1.00665	0.370572	-0.291682	0.0785478	-0.119076	-0.0229352	0.273311	0
211.34	-0.00123843	0.227583	1.00385	0.38199	-0.232855	0.0712717	-0.104493	-0.0228446	0.278072	0
211.35	-0.00273788	0.227242	1.00222	0.372009	-0.177719	0.0674459	-0.114978	-0.0169031	0.286839	0
211.36	-0.00318659	0.227183	1.00075	0.358161	-0.122486	0.0665256	-0.124585	-0.0150057	0.294699	0
211.37	-0.00328875	0.226965	0.999454	0.34585	-0.0751104	0.0678694	-0.131467	-0.0183356	0.302944	0
211.38	0.0107431	0.229328	0.999614	0.315575	-0.0329239	0.0726697	-0.158747	-0.0181173	0.311417	0
211.39	0.0128186	0.230096	0.998764	0.3024	0.00203038	0.0766342	-0.171313	-0.0161925	0.315012	0
211.4	0.0141927	0.230868	0.997798	0.290718	0.0286375	0.0788286	-0.180754	-0.0195795	0.32222	0
211.41	0.0142411	0.231322	0.996606	0.282755	0.0441125	0.085151	-0.186231	-0.0266995	0.332647	0
